<svg width="26" height="26" viewBox="0 0 26 26" fill="none" xmlns="http://www.w3.org/2000/svg">
<path d="M11.917 4.33338H4.33366C3.75902 4.33338 3.20792 4.56165 2.80159 4.96798C2.39527 5.37431 2.16699 5.92541 2.16699 6.50004V21.6667C2.16699 22.2413 2.39527 22.7924 2.80159 23.1988C3.20792 23.6051 3.75902 23.8334 4.33366 23.8334H19.5003C20.075 23.8334 20.6261 23.6051 21.0324 23.1988C21.4387 22.7924 21.667 22.2413 21.667 21.6667V14.0834M20.042 2.70838C20.473 2.2774 21.0575 2.03528 21.667 2.03528C22.2765 2.03528 22.861 2.2774 23.292 2.70838C23.723 3.13935 23.9651 3.72388 23.9651 4.33338C23.9651 4.94287 23.723 5.5274 23.292 5.95838L13.0003 16.25L8.66699 17.3334L9.75033 13L20.042 2.70838Z" stroke="#FCFCFE" stroke-opacity="0.86" stroke-width="2" stroke-linecap="round" stroke-linejoin="round"/>
</svg>
