<svg width="21" height="19" viewBox="0 0 21 19" fill="none" xmlns="http://www.w3.org/2000/svg">
<path fill-rule="evenodd" clip-rule="evenodd" d="M14.8499 4.6C14.8499 7.00244 12.9024 8.95 10.4999 8.95C8.09749 8.95 6.14993 7.00244 6.14993 4.6C6.14993 2.19756 8.09749 0.25 10.4999 0.25C12.9024 0.25 14.8499 2.19756 14.8499 4.6ZM13.3999 4.6C13.3999 6.20163 12.1016 7.5 10.4999 7.5C8.89831 7.5 7.59993 6.20163 7.59993 4.6C7.59993 2.99837 8.89831 1.7 10.4999 1.7C12.1016 1.7 13.3999 2.99837 13.3999 4.6Z" fill="#292929"/>
<path d="M10.4999 11.125C5.806 11.125 1.80666 13.9006 0.283203 17.7892C0.654327 18.1578 1.04528 18.5063 1.45432 18.8332C2.58875 15.2631 6.14755 12.575 10.4999 12.575C14.8523 12.575 18.4111 15.2631 19.5456 18.8333C19.9546 18.5063 20.3455 18.1578 20.7167 17.7892C19.1932 13.9006 15.1939 11.125 10.4999 11.125Z" fill="#292929"/>
</svg>
