<svg width="29" height="29" viewBox="0 0 29 29" fill="none" xmlns="http://www.w3.org/2000/svg">
<rect x="0.5" y="0.5" width="28" height="28" rx="14" fill="#241D47"/>
<rect x="0.5" y="0.5" width="28" height="28" rx="14" stroke="#EAEAEA"/>
<path fill-rule="evenodd" clip-rule="evenodd" d="M18.8499 11.6C18.8499 14.0024 16.9024 15.95 14.4999 15.95C12.0975 15.95 10.1499 14.0024 10.1499 11.6C10.1499 9.19756 12.0975 7.25 14.4999 7.25C16.9024 7.25 18.8499 9.19756 18.8499 11.6ZM17.3999 11.6C17.3999 13.2016 16.1016 14.5 14.4999 14.5C12.8983 14.5 11.5999 13.2016 11.5999 11.6C11.5999 9.99837 12.8983 8.7 14.4999 8.7C16.1016 8.7 17.3999 9.99837 17.3999 11.6Z" fill="#EAEAEA"/>
<path d="M14.4999 18.125C9.806 18.125 5.80666 20.9006 4.2832 24.7892C4.65433 25.1578 5.04528 25.5063 5.45432 25.8332C6.58875 22.2631 10.1476 19.575 14.4999 19.575C18.8523 19.575 22.4111 22.2631 23.5456 25.8333C23.9546 25.5063 24.3455 25.1578 24.7167 24.7892C23.1932 20.9006 19.1939 18.125 14.4999 18.125Z" fill="#EAEAEA"/>
</svg>
