<svg width="2745" height="488" viewBox="0 0 2745 488" fill="none" xmlns="http://www.w3.org/2000/svg">
    <path d="M0.5 330.864C232.505 403.801 853.749 527.683 1482.69 439.719C2111.63 351.756 2585.54 434.588 2743.87 487" stroke="#71717a" />
    <path d="M0.5 286.882C232.505 359.819 853.749 483.701 1482.69 395.738C2111.63 307.774 2585.54 390.606 2743.87 443.018" stroke="#71717a" />
    <path d="M0.5 242.9C232.505 315.837 853.749 439.719 1482.69 351.756C2111.63 263.792 2585.54 346.624 2743.87 399.036" stroke="#71717a" />
    <path d="M0.5 198.918C232.505 271.855 853.749 395.737 1482.69 307.774C2111.63 219.81 2585.54 302.642 2743.87 355.054" stroke="#71717a" />
    <path d="M0.5 154.937C232.505 227.873 853.749 351.756 1482.69 263.792C2111.63 175.828 2585.54 258.661 2743.87 311.072" stroke="#71717a" />
    <path d="M0.5 110.955C232.505 183.891 853.749 307.774 1482.69 219.81C2111.63 131.846 2585.54 214.679 2743.87 267.091" stroke="#71717a" />
    <path d="M0.5 66.9729C232.505 139.91 853.749 263.792 1482.69 175.828C2111.63 87.8643 2585.54 170.697 2743.87 223.109" stroke="#71717a" />
    <path d="M0.5 22.991C232.505 95.9276 853.749 219.81 1482.69 131.846C2111.63 43.8824 2585.54 126.715 2743.87 179.127" stroke="#71717a" />
</svg>
