<svg width="1024" height="1024" viewBox="0 0 1024 1024" fill="none" xmlns="http://www.w3.org/2000/svg">
<rect width="1024" height="1024" rx="100" fill="#9233FF"/>
<rect x="99" y="87" width="603" height="849" rx="60" fill="url(#paint0_linear_11_2)"/>
<rect x="173" y="218" width="376" height="74" rx="37" fill="#9233FF"/>
<rect x="173" y="392" width="267" height="74" rx="37" fill="#9233FF"/>
<rect x="173" y="566" width="158" height="74" rx="37" fill="#9233FF"/>
<path d="M431.953 770.866C432.373 767.509 438.714 763.647 440.685 760.8C443.791 756.314 448.196 752.771 450.752 747.944C452.614 744.426 455.08 741.592 456.816 738.121C457.895 735.962 458.541 733.693 459.484 731.571C460.444 729.411 459.667 727.065 460.575 725.022C462.36 721.008 461.424 715.257 461.424 710.833C461.424 705.995 462.516 701.411 462.516 696.401C462.516 680.078 467.323 663.434 475.007 649.163C476.41 646.558 477.537 644.974 479.373 642.613C481.433 639.965 482.873 641.428 481.071 644.311C474.29 655.161 467.335 666.273 461 677.481C456.746 685.006 451.226 694.234 449.357 702.646C448.457 706.696 445.28 711.315 445.051 715.199C444.468 725.125 446.032 730.667 454.875 735.089C458.953 737.128 463.316 738.261 467.367 740.061C471.414 741.86 476.845 740.988 480.526 743.032C483.683 744.786 490.034 743.578 493.624 743.578C497.621 743.578 494.196 743.2 492.532 744.124C490.035 745.511 487.116 747.152 484.346 747.944C480.25 749.114 472.861 751.658 470.156 755.039C469.099 756.361 467.608 757.163 466.457 758.313C465.909 758.861 473.749 757.209 474.765 756.919C480.995 755.139 487.196 754.402 493.078 751.461C497.759 749.121 502.235 745.736 507.025 743.821C514.969 740.643 521.672 735.938 530.735 735.938C539.683 735.938 548.499 730.11 556.931 728.236C558.752 727.832 560.533 726.114 562.267 726.114C565.825 726.114 555.152 726.114 551.595 726.114C541.913 726.114 532.231 726.114 522.549 726.114C515.303 726.114 508.773 724.279 501.81 723.931C496.315 723.656 489.823 722.875 486.771 717.382C483.473 711.445 482.163 705.827 482.163 698.826C482.163 690.792 482.882 689.258 489.197 684.091C493.849 680.284 505.984 679.466 511.088 682.999C517.761 687.619 524.643 694.286 527.4 702.161C529.255 707.462 531.533 721.176 528.006 726.114C523.733 732.096 512.244 733.754 505.327 733.754C497.28 733.754 492.458 734.081 485.68 729.388C478.57 724.466 477.797 713.258 477.797 705.618C477.797 702.243 477.403 700.168 479.98 697.735C482.137 695.698 485.216 696.339 486.529 698.826C491.655 708.539 490.895 718.716 490.895 729.388C490.895 741.946 487.982 748.653 479.495 757.707C471.552 766.179 454.147 763.225 443.414 763.225C437.419 763.225 436.319 762.85 436.319 756.676C436.319 742.619 445.736 731.174 452.086 719.08C457.614 708.549 468.223 694.841 479.616 690.094C487.002 687.016 495.174 685.728 503.144 685.728C506.962 685.728 512.371 684.688 515.757 686.82C521.313 690.318 542.816 713.112 531.645 716.836C522.836 719.772 507.834 712.381 503.993 703.738C503.086 701.698 497.991 694.895 501.264 692.277C514.716 681.516 531.257 715.887 523.398 718.716C511.605 722.961 501.295 713.216 494.412 704.769C485.476 693.802 483.254 679.959 483.254 666.081C483.254 658.276 482.89 647.367 492.229 644.493C501.547 641.626 509.402 648.483 511.634 657.409C513.404 664.492 516.365 670.305 507.753 673.176C497.109 676.724 487.303 670.343 483.921 660.199C481.432 652.73 481.421 636.649 485.922 629.576C490.88 621.785 497.49 626.5 500.718 633.336C502.316 636.718 508.192 650.109 504.842 653.832C498.259 661.146 492.963 645.956 492.229 641.825C490.653 632.961 491.99 620.675 502.053 617.206C512.676 613.542 524.418 615.91 528.552 627.393C530.591 633.057 537.876 655.667 527.339 657.288C513.781 659.374 511.634 638.991 511.634 629.637C511.634 624.192 512.174 619.817 517.03 616.478C520.101 614.367 524.49 613.68 526.915 617.145C532.614 625.287 533.726 637.742 534.555 647.283C535.159 654.225 536.662 661.693 535.586 668.688C534.548 675.437 524.265 675.118 522.003 669.841C516.706 657.48 521.308 637.702 536.92 637.702C545.821 637.702 549.407 639 550.867 648.738C552.337 658.538 554.226 672.322 550.807 681.847C548.519 688.22 543.462 695.167 536.738 697.128C528.772 699.452 529.098 691.6 529.098 685.728C529.098 672.442 530.666 656.835 547.411 656.257C561.027 655.788 557.171 686.34 553.353 693.975C552.289 696.104 537.711 719.638 535.404 709.256C532.288 695.232 540.571 683.545 555.233 683.545C559.202 683.545 563.608 682.09 564.087 686.88C564.795 693.96 565.801 700.051 563.48 707.013C561.321 713.49 551.025 728.794 549.897 713.562C548.722 697.7 555.292 681.896 573.243 683.606C578.652 684.121 577.552 694.754 577.003 698.462C575.821 706.441 570.915 710.854 564.026 714.107C561.885 715.118 555.51 716.789 555.294 713.016C554.917 706.425 554.425 698.396 558.326 692.762C561.409 688.308 565.605 683.943 571.06 682.696C576.802 681.384 576.033 684.62 576.033 689.245C576.033 696.068 571.289 699.516 566.209 703.435C565.654 703.863 559.98 709.264 558.811 707.316C554.621 700.333 563.959 688.584 568.392 684.151C572.784 679.76 577.105 675.904 583.673 675.904C590.998 675.904 587.207 705.753 577.609 707.498C573.833 708.184 571.021 705.893 570.636 702.04C569.863 694.314 572.959 689.001 579.307 684.637C584.415 681.125 590.307 676.766 596.711 675.965C600.654 675.472 602.905 677.631 600.167 681.665C593.692 691.207 584.659 697.494 574.153 701.434C565.694 704.606 570.002 689.962 571.667 685.728C575.495 675.992 580.975 666.491 589.131 659.774C591.107 658.147 598.445 653.733 601.137 656.742C608.669 665.161 591.828 687.333 582.582 686.82C577.188 686.52 600.199 659.379 601.865 657.713C607.3 652.278 617.071 642.257 625.393 642.068C635.838 641.83 624.8 657.781 622.119 660.987C616.612 667.572 607.405 674.912 599.561 678.573C591.907 682.145 598.153 669.2 599.561 667.172C604.813 659.609 610.724 652.181 618.541 647.101C623.259 644.034 627.011 645.458 626.121 651.467C624.892 659.759 616.314 668.785 610.354 674.267C609.26 675.274 599.243 684.072 599.015 682.817C597.607 675.073 606.242 665.411 609.809 659.168C610.819 657.4 620.663 645.973 620.663 648.92C620.663 663.191 608.045 678.771 600.288 689.852C597.397 693.982 590.871 706.378 585.007 707.316C582.715 707.682 583.782 698.122 583.916 697.007C584.881 688.965 589.169 681.54 593.254 674.692C597.566 667.463 602.898 660.547 608.414 654.196C610.664 651.605 614.347 649.261 616.176 646.434C617.907 643.758 614.789 649.714 614.599 649.951C609.347 656.516 601.226 660.363 593.861 664.019C586.053 667.895 563.88 676.983 559.903 664.019C554.932 647.82 562.961 632.891 575.305 622.542C583.148 615.966 593.567 609.692 603.927 608.473C618.431 606.767 607.174 641.007 605.139 645.403C598.183 660.438 587.104 676.251 571.788 683.909C559.34 690.133 564.201 665.584 566.027 659.835C572.136 640.604 587.264 621.929 600.955 607.382C602.051 606.218 614.951 594.961 615.266 597.013C616.117 602.541 611.68 609.027 609.02 613.385C602.191 624.574 592.989 633.919 583.976 643.341C579.319 648.21 574.242 652.59 569.484 657.349C568.894 657.938 559.626 666.249 560.327 662.624C561.249 657.863 566.705 652.249 569.484 648.859C576.86 639.86 584.792 631.305 592.708 622.784C599.543 615.429 606.343 607.729 614.114 601.318C616.208 599.591 623.278 593.11 620.724 600.408C614.382 618.529 600.034 634.611 588.646 649.708C576.674 665.578 564.786 681.823 551.656 696.764C528.663 722.929 594.147 641.514 616.904 615.144C624.955 605.814 632.829 596.322 641.038 587.128C642.874 585.072 650.374 577.825 644.191 584.582C621.384 609.505 597.114 632.992 573.243 656.864C568.052 662.055 563.531 668.383 557.477 672.63C554.594 674.652 554.907 672.571 556.022 670.144C558.807 664.075 562.963 658.596 566.694 653.104C580.855 632.264 594.565 610.855 609.627 590.645C612.595 586.662 622.36 575.813 618.116 578.396C615.215 580.163 611.916 584.794 609.869 587.068C603.137 594.548 596.545 602.151 589.737 609.565C578.56 621.736 567.113 633.68 555.779 645.706C551.729 650.004 547.496 654.119 543.409 658.38C542.194 659.646 538.568 664.243 542.256 659.289C566.806 626.322 595.652 596.212 622.179 564.813C628.078 557.831 634.343 551.146 640.128 544.074C641.852 541.968 646.541 535.301 645.162 537.647C643.121 541.116 640.042 544.367 637.46 547.349C612.532 576.135 585.974 603.703 559.66 631.213C554.037 637.092 548.647 643.212 543.166 649.223C542.684 649.752 542.229 650.307 541.711 650.8C540.855 651.613 543.133 648.913 543.894 648.01C550.096 640.653 556.379 633.365 562.571 625.998C581.577 603.385 600.697 580.768 619.026 557.597C619.837 556.571 631.958 542.358 626.606 548.38C614.066 562.487 600.449 575.708 587.372 589.311C569.27 608.143 551.158 627.104 533.585 646.434C531.772 648.428 529.749 650.638 528.37 652.983C526.591 656.007 532.992 647.703 535.344 645.1C556.046 622.179 576.401 599.063 596.771 575.849C610.545 560.154 624.011 543.606 638.612 528.672C667.89 498.729 579.551 588.06 550.079 617.812C543.482 624.472 536.859 631.114 530.189 637.702C529.632 638.252 524.878 643.098 529.522 637.762C534.556 631.979 539.806 626.382 545.106 620.844C564.317 600.772 582.855 580.196 601.744 559.841C605.386 555.916 609.044 552.02 612.659 548.077C619.019 541.139 598.863 560.884 591.92 567.239C575.733 582.053 559.057 596.485 543.409 611.869C536.029 619.124 512.648 639.321 521.336 633.699C531.814 626.919 540.275 613.62 548.138 604.229C557.919 592.548 568.053 581.186 577.73 569.422C585.065 560.505 595.743 551.732 601.259 541.528C605.697 533.317 587.134 553.744 580.399 560.204C566.514 573.522 554.547 588.308 541.226 602.046C541.036 602.241 534.882 609.252 535.889 609.504C537.744 609.968 547.411 595.539 548.381 594.284C561.085 577.832 573.978 561.62 586.948 545.408C588.11 543.955 593.254 539.065 593.254 537.04C593.254 535.549 591.294 539.288 590.343 540.436C587.144 544.303 583.722 547.946 580.277 551.594C572.582 559.742 564.86 567.888 557.356 576.213C551.737 582.447 546.853 590.595 540.559 596.103C529.106 606.124 561.233 573.654 570.029 561.235C570.871 560.047 576.462 554.222 576.154 552.988C575.616 550.836 572.751 555.846 571.181 557.415C567.177 561.42 563.343 565.584 559.417 569.664C547.44 582.115 534.287 593.352 522.306 605.805C517.17 611.144 503.833 628.683 507.146 622.057C511.728 612.893 521.792 604.336 528.249 596.467C535.351 587.811 542.333 579.037 549.594 570.513C553.421 566.02 557.031 561.438 561.115 557.173C562.329 555.905 566.039 552.449 564.39 553.049C559.617 554.784 554.67 563.652 551.534 567.239C543.642 576.267 535.958 585.452 528.127 594.526C523.603 599.77 518.517 604.417 514.302 609.929C512.676 612.055 507.013 617.577 509.329 616.235C518.074 611.173 524.804 599.913 531.159 592.465C538.249 584.157 544.959 575.557 552.019 567.239C555.183 563.512 568.681 547.599 557.234 560.204C543.587 575.234 503.289 620.704 515.151 604.229C529.438 584.385 544.382 564.872 559.175 545.408C567.202 534.847 578.614 527.767 588.585 519.273C598.527 510.804 609.569 501.794 620.784 495.563C628.397 491.333 633.717 483.616 641.038 479.433C645.815 476.703 649.327 471.535 653.772 468.275C663.818 460.908 672.944 452.401 682.152 444.019C688.14 438.569 694.472 433.553 700.465 428.132C700.699 427.92 704.015 426.067 703.86 426.919C702.718 433.203 692.23 441.914 688.337 446.566C676.013 461.295 660.218 472.87 647.223 487.073C637.844 497.325 628.876 507.671 620.178 518.485C613.367 526.953 607.466 537.018 599.803 544.681C597.408 547.076 595.427 549.525 593.739 552.564C593.244 553.456 591.355 555.866 592.041 555.111C596.881 549.787 601.639 544.459 606.716 539.345C623.337 522.602 640.035 505.523 659.23 491.682C682.703 474.757 706.752 458.303 731.269 442.928C741.149 436.732 753.22 430.667 761.832 422.917C768.256 417.135 766.592 421.882 762.438 427.222C725.577 474.615 683.237 518.076 649.649 568.027C637.645 585.879 628.577 605.586 616.964 623.451C615.179 626.198 612.958 631.302 610.415 633.336C610.121 633.571 608.99 635.484 609.506 635.337C612.328 634.53 615.725 629.072 617.692 627.15C641.469 603.914 663.269 578.574 689.55 558.021C697.677 551.665 706.098 544.84 713.563 537.768C714.522 536.859 724.767 530.411 723.508 533.038C719.67 541.046 711.265 547.92 705.68 554.747C695.431 567.273 685.651 580.198 675.239 592.586C663.5 606.551 650.667 620.6 640.674 635.882C637.063 641.405 632.685 646.055 629.517 651.891C628.054 654.585 626.055 658.378 624.059 660.623C622.454 662.429 622.139 665.155 620.542 666.93C615.605 672.415 626.589 659.378 627.394 658.319C649.277 629.526 676.733 604.113 703.012 579.427C709.506 573.327 715.955 567.657 721.264 560.69C725.658 554.923 731.408 549.781 737.03 545.408C740.774 542.497 744.036 537.372 747.4 534.008C756.794 524.614 763.621 512.254 771.655 501.748C775.152 497.175 782.972 482.156 781.843 487.801C781.133 491.347 776.817 495.319 774.687 497.988C770.06 503.789 765.193 509.314 760.255 514.846C747.47 529.171 735.851 544.211 721.264 556.809C716.837 560.632 709.908 567.206 704.285 568.937C701.981 569.646 697.087 572.998 698.524 568.148C701.047 559.634 711.158 551.325 716.534 544.62C727.233 531.278 738.624 518.777 750.432 506.417C763.869 492.352 777.209 478.097 791.484 464.879C823.404 435.324 733.832 530.112 703.072 560.872C696.833 567.11 678.202 585.831 683.789 579.003C706.455 551.299 732.473 525.724 758.315 501.02C765.259 494.382 772.018 487.56 778.811 480.767C779.841 479.737 787.583 472.208 781.964 476.28C752.315 497.76 725.155 522.708 697.19 546.257C687.541 554.383 677.651 562.548 666.87 568.937C663.903 570.695 667.44 566.055 667.841 565.541C677.513 553.125 688.479 541.583 699.616 530.491C722.512 507.686 746.847 485.034 772.868 465.728C777.07 462.611 789.347 453.29 777.841 463.181C750.288 486.867 722.37 510.423 695.492 534.857C686.175 543.328 676.727 551.539 666.749 559.234C661.967 562.922 655.746 568.347 662.989 558.81C678.543 538.33 696.757 519.729 714.412 501.081C731.542 482.988 748.818 464.846 766.804 447.597C774.645 440.078 782.893 433.025 790.575 425.342C794.167 421.751 804.806 410.961 801.854 415.094C799.843 417.909 796.073 420.692 793.607 422.917C783.584 431.959 773.534 440.946 763.651 450.144C740.383 471.8 717.608 493.979 694.34 515.635C684.689 524.617 675.18 533.75 665.536 542.74C662.575 545.501 655.201 554.778 656.622 550.987C657.515 548.606 660.627 545.683 662.141 543.953C669.224 535.858 676.544 527.954 683.849 520.061C702.918 499.458 722.174 479.056 740.911 458.148C753.968 443.58 794.312 400.951 781.054 415.337C748.947 450.177 715.277 484.184 681.545 517.454C680.258 518.724 658.785 541.042 658.138 540.315C656.15 538.078 674.494 516.049 677.3 513.027C682.291 507.653 686.553 500.402 690.884 494.471C693.437 490.975 698.564 482.338 702.648 480.767C706.308 479.359 697.554 486.743 694.765 489.499C688.964 495.23 682.815 500.595 676.815 506.114C666.883 515.252 656.973 524.335 645.768 531.947C641.12 535.103 640.422 531.844 642.615 527.459C646.543 519.603 652.262 512.133 657.411 505.023C668.965 489.066 679.794 472.656 691.187 456.572C701.394 442.162 712.466 428.088 723.871 414.609C727.632 410.165 732.998 406.839 736.484 402.481C740.05 398.025 744.226 393.709 748.249 389.687C753.133 384.802 756.819 378.591 761.589 373.556C763.712 371.316 766.019 369.251 768.138 367.007C769.681 365.374 769.997 362.81 771.655 361.55C778.473 356.369 780.877 346.952 786.694 340.811C788.788 338.601 796.879 334.356 796.517 334.808C793.412 338.69 787.671 342.017 783.965 345.723C776.533 353.156 770.648 362.193 763.166 369.676C759 373.841 753.667 376.989 749.037 380.591C745.387 383.43 741.526 387.363 737.576 389.687C727.813 395.429 716.134 407.13 710.531 417.217C708.468 420.93 706.251 421.861 703.497 424.615C700.681 427.431 704.293 432.836 699.98 435.712C696.666 437.921 707.943 435.772 711.925 435.772C718.856 435.772 727.875 433.585 734.241 430.8C746.951 425.239 754.834 412.487 767.047 406.059C772.847 403.006 780.196 402.175 782.328 408.97C787.486 425.412 787.265 445.912 783.662 462.575C781.962 470.438 780.226 477.496 777.113 484.89C775.072 489.737 772.705 494.714 779.053 494.714C782.238 494.714 790.419 496.169 792.151 493.137C795.103 487.973 800.443 483.699 803.066 477.796C804.686 474.152 807.297 469.745 810.161 466.88C814.011 463.031 819.59 458.378 822.653 453.782C825.045 450.195 828.993 448.049 831.992 445.05C835.49 441.552 842.747 439.443 845.09 435.227C848.457 429.165 856.185 423.525 861.159 418.551C866.297 413.413 869.542 407.417 874.257 402.178C875.221 401.107 876.411 399.8 877.532 398.904C879.746 397.132 879.051 398.725 877.047 396.721C874.752 394.426 871.688 391.997 869.103 389.929C858.122 381.144 848.575 369.413 839.086 359.367C836.379 356.5 833.778 353.623 830.354 351.484C826.952 349.357 826.108 344.973 823.563 342.145C818.944 337.013 813.621 331.136 807.978 326.622C805.376 324.54 804.134 321.145 801.429 318.981C799.015 317.05 800.963 317.608 799.246 318.981C797.523 320.36 795.589 321.462 793.789 322.862C786.261 328.717 780.301 335.198 773.596 341.903C763.712 351.787 756.074 362.813 747.642 374.163C743.706 379.462 739.85 384.724 735.393 389.444C729.478 395.707 738.306 388.107 740.305 386.109C745.968 380.446 754.536 376.546 761.043 372.04C767.1 367.847 774.752 364.685 781.297 361.004C785.07 358.882 793.383 352.624 798.094 353.97C799.764 354.447 791.271 366.548 790.575 367.735C783.299 380.147 773.717 390.738 766.804 403.027C764.996 406.241 770.922 396.835 773.596 394.295C780.833 387.42 788.312 378.302 797.124 373.496C801.339 371.197 805.078 367.007 810.161 367.007C813.439 367.007 811.529 376.342 810.161 377.983C802.6 387.057 802.431 404.108 791.06 410.425C785.211 413.675 786.453 407.36 786.694 403.027C786.968 398.094 794.722 389.385 798.458 386.655C807.063 380.366 812.607 369.967 825.382 373.617C831.479 375.359 829.87 392.231 828.171 396.054C821.851 410.274 814.556 425.31 804.158 436.864C800.206 441.256 795.429 446.986 792.394 452.145C791.483 453.694 787.766 458.978 787.785 458.694C788.031 455.003 801.483 449.491 804.158 447.779C810.321 443.835 818.641 438.903 823.199 433.044C828.118 426.72 856.9 397.725 842.361 391.263C829.035 385.341 816.448 376.213 802.218 371.131C796.271 369.007 789.772 366.29 783.419 365.916C780.353 365.735 771.571 363.7 768.684 362.096C764.628 359.843 756.368 361.314 753.403 364.279C740.803 376.879 730.255 391.02 720.051 405.817C705.037 427.587 690.492 449.712 675.602 471.55C670.077 479.653 664.646 488.052 660.564 496.958C659.397 499.504 657.243 505.41 654.621 506.721" stroke="url(#paint1_linear_11_2)" stroke-width="29" stroke-linecap="round"/>
<path d="M821 286.882C828.716 286.882 835.134 298.37 841.343 301.508C848.666 305.211 857.082 312.276 862.188 318.249C873.096 331.012 886.039 342.411 898.729 353.959C904.857 359.535 911.968 364.521 918.193 370.186C922.198 373.83 924.693 377.836 928.113 381.727C930.671 384.637 919.742 381.681 918.821 381.441C910.971 379.4 907.6 373.345 902.12 368.357C896.482 363.227 891.74 354.194 884.916 350.645C882.024 349.141 878.014 344.567 876.377 341.96C874.216 338.519 869.481 336.006 867.336 332.59C863.055 325.773 853.44 320.059 847.245 314.421C839.487 307.362 821.735 276.186 839.71 271.512C848.745 269.163 854.621 278.517 858.295 284.368C863.768 293.083 872.715 299.299 877.759 308.479C882.55 317.199 890.197 323.171 896.72 330.59C901.441 335.961 909.12 343.478 915.932 346.76C920.978 349.191 931.603 359.945 937.656 354.987C943.981 349.807 939.631 341.472 934.517 336.818C929.389 332.151 920.701 327.186 917.063 321.392C913.616 315.902 907.172 308.992 902.371 304.365C895.16 297.418 889.104 289.578 884.037 281.739C881.812 278.298 878.896 275.684 878.638 271.455C878.397 267.519 878.512 263.2 878.512 259.628C878.512 258.629 868.085 260.142 866.771 260.142C866.047 260.142 861.459 260.97 863.506 260.142C865.823 259.205 869.342 258.085 871.857 258.085C879.439 258.085 891.47 260.21 895.59 266.77C899.719 273.346 905.005 278.899 906.828 286.367C908.714 294.087 912.863 300.55 918.444 306.194C924.87 312.691 932.172 317.696 940.796 321.62C944.356 323.24 947.803 324.569 950.716 327.219C952.368 328.723 953.196 328.08 954.609 329.848C955.142 330.515 957.286 335.917 957.685 334.647C959.734 328.122 951.275 316.993 947.074 312.079C944.593 309.176 944.115 302.256 941.361 300.251C939.985 299.25 937.518 290.779 937.405 288.939C936.964 281.703 929.386 274.292 923.278 269.97C920.659 268.116 915.408 266.449 913.672 263.685C911.944 260.933 908.456 256.635 905.761 255" stroke="url(#paint2_linear_11_2)" stroke-width="29" stroke-linecap="round"/>
<path d="M799 296L901 398" stroke="#9233FF" stroke-width="28" stroke-linecap="round"/>
<path d="M828.875 260.625C836.196 253.304 844.888 247.496 854.453 243.534C864.019 239.572 874.271 237.533 884.625 237.533C894.979 237.533 905.231 239.572 914.797 243.534C924.362 247.496 933.054 253.304 940.375 260.625C947.696 267.946 953.504 276.638 957.466 286.203C961.428 295.769 963.467 306.021 963.467 316.375C963.467 326.729 961.428 336.981 957.466 346.547C953.504 356.112 947.696 364.804 940.375 372.125L564.063 748.438L410.75 790.25L452.563 636.938L828.875 260.625Z" stroke="#9233FF" stroke-width="28" stroke-linecap="round" stroke-linejoin="round"/>
<defs>
<linearGradient id="paint0_linear_11_2" x1="99" y1="907.738" x2="702.386" y2="87.2841" gradientUnits="userSpaceOnUse">
<stop stop-color="#95EDFF"/>
<stop offset="1" stop-color="#F949FF"/>
</linearGradient>
<linearGradient id="paint1_linear_11_2" x1="432" y1="771" x2="879" y2="318" gradientUnits="userSpaceOnUse">
<stop offset="0.254808" stop-color="#98DAE7"/>
<stop offset="1" stop-color="#F949FF"/>
</linearGradient>
<linearGradient id="paint2_linear_11_2" x1="821" y1="383" x2="958" y2="255" gradientUnits="userSpaceOnUse">
<stop offset="0.519231" stop-color="#F949FF"/>
</linearGradient>
</defs>
</svg>