<svg width="1024" height="1024" viewBox="0 0 1024 1024" fill="none" xmlns="http://www.w3.org/2000/svg">
<g clip-path="url(#clip0_11_2)">
<rect width="1024" height="1024" rx="100" fill="#8D29FF"/>
<rect x="86" y="88" width="695" height="849" rx="60" fill="url(#paint0_linear_11_2)"/>
<rect x="160" y="225" width="475" height="111" rx="55.5" fill="#9233FF"/>
<rect x="160" y="401" width="375" height="111" rx="55.5" fill="#9233FF"/>
<rect x="160" y="577" width="243" height="111" rx="55.5" fill="#9233FF"/>
<path d="M403 809C403.473 805.37 410.624 801.194 412.847 798.115C416.349 793.264 421.316 789.433 424.198 784.213C426.298 780.409 429.079 777.344 431.036 773.591C432.253 771.256 432.981 768.803 434.044 766.509C435.127 764.172 434.252 761.635 435.275 759.427C437.287 755.085 436.233 748.867 436.233 744.083C436.233 738.851 437.463 733.894 437.463 728.476C437.463 710.826 442.884 692.827 451.55 677.395C453.131 674.578 454.403 672.865 456.473 670.313C458.796 667.449 460.42 669.031 458.388 672.149C450.741 683.882 442.898 695.898 435.754 708.017C430.958 716.155 424.733 726.134 422.625 735.23C421.61 739.609 418.028 744.604 417.77 748.804C417.112 759.538 418.876 765.531 428.848 770.312C433.446 772.517 438.366 773.742 442.934 775.689C447.498 777.634 453.622 776.691 457.772 778.902C461.332 780.799 468.495 779.492 472.542 779.492C477.05 779.492 473.187 779.083 471.311 780.082C468.495 781.583 465.204 783.357 462.08 784.213C457.461 785.479 449.13 788.229 446.079 791.885C444.887 793.315 443.205 794.182 441.908 795.426C441.29 796.019 450.131 794.232 451.276 793.918C458.301 791.993 465.294 791.197 471.927 788.017C477.205 785.486 482.253 781.826 487.654 779.754C496.612 776.318 504.171 771.23 514.391 771.23C524.481 771.23 534.422 764.928 543.931 762.902C545.984 762.465 547.993 760.607 549.948 760.607C553.96 760.607 541.925 760.607 537.913 760.607C526.995 760.607 516.077 760.607 505.159 760.607C496.989 760.607 489.626 758.623 481.774 758.246C475.577 757.949 468.257 757.105 464.815 751.165C461.096 744.744 459.619 738.669 459.619 731.099C459.619 722.411 460.429 720.752 467.551 715.165C472.797 711.049 486.48 710.163 492.236 713.985C499.761 718.981 507.522 726.19 510.63 734.706C512.722 740.437 515.291 755.267 511.314 760.607C506.496 767.076 493.54 768.869 485.74 768.869C476.665 768.869 471.227 769.222 463.585 764.148C455.567 758.826 454.695 746.705 454.695 738.443C454.695 734.794 454.251 732.551 457.157 729.919C459.589 727.716 463.061 728.409 464.542 731.099C470.322 741.602 469.465 752.607 469.465 764.148C469.465 777.727 466.181 784.98 456.61 794.771C447.653 803.932 428.027 800.738 415.924 800.738C409.164 800.738 407.923 800.332 407.923 793.656C407.923 778.455 418.542 766.079 425.702 753.001C431.936 741.613 443.899 726.79 456.747 721.657C465.076 718.329 474.29 716.935 483.278 716.935C487.584 716.935 493.683 715.81 497.501 718.116C503.766 721.898 528.014 746.548 515.416 750.574C505.483 753.75 488.567 745.756 484.235 736.411C483.213 734.204 477.467 726.849 481.158 724.017C496.327 712.381 514.979 749.548 506.117 752.607C492.819 757.198 481.193 746.66 473.431 737.525C463.354 725.666 460.849 710.697 460.849 695.69C460.849 687.25 460.438 675.453 470.97 672.346C481.477 669.245 490.335 676.66 492.851 686.313C494.848 693.971 498.187 700.257 488.475 703.362C476.472 707.198 465.414 700.298 461.602 689.329C458.794 681.252 458.782 663.864 463.858 656.215C469.449 647.79 476.903 652.888 480.543 660.28C482.344 663.938 488.971 678.418 485.193 682.444C477.769 690.353 471.798 673.928 470.97 669.46C469.193 659.875 470.7 646.59 482.047 642.838C494.027 638.876 507.267 641.437 511.929 653.854C514.229 659.979 522.443 684.429 510.562 686.182C495.272 688.437 492.851 666.396 492.851 656.28C492.851 650.393 493.461 645.661 498.937 642.051C502.4 639.768 507.348 639.026 510.083 642.772C516.509 651.576 517.763 665.045 518.699 675.362C519.379 682.869 521.075 690.945 519.861 698.509C518.69 705.807 507.095 705.462 504.544 699.755C498.571 686.389 503.76 665.001 521.366 665.001C531.403 665.001 535.446 666.405 537.093 676.936C538.75 687.533 540.88 702.439 537.025 712.739C534.445 719.63 528.742 727.142 521.16 729.263C512.178 731.776 512.545 723.285 512.545 716.935C512.545 702.568 514.313 685.691 533.195 685.067C548.549 684.559 544.201 717.597 539.896 725.853C538.696 728.155 522.257 753.604 519.656 742.378C516.142 727.213 525.482 714.575 542.016 714.575C546.491 714.575 551.459 713.001 552 718.181C552.798 725.837 553.933 732.424 551.316 739.952C548.881 746.956 537.271 763.506 535.999 747.033C534.674 729.882 542.082 712.792 562.325 714.64C568.425 715.197 567.184 726.695 566.565 730.706C565.232 739.333 559.7 744.106 551.931 747.624C549.517 748.717 542.328 750.523 542.085 746.443C541.66 739.316 541.105 730.634 545.504 724.542C548.981 719.725 553.711 715.005 559.863 713.657C566.338 712.238 565.471 715.737 565.471 720.739C565.471 728.116 560.122 731.845 554.393 736.083C553.767 736.546 547.369 742.387 546.051 740.279C541.326 732.728 551.856 720.024 556.855 715.23C561.807 710.481 566.679 706.313 574.086 706.313C582.347 706.313 578.071 738.589 567.248 740.476C562.99 741.219 559.819 738.74 559.385 734.575C558.513 726.22 562.005 720.474 569.163 715.755C574.923 711.957 581.567 707.244 588.788 706.378C593.235 705.845 595.773 708.18 592.686 712.542C585.384 722.86 575.198 729.658 563.351 733.919C553.812 737.349 558.67 721.514 560.547 716.935C564.865 706.408 571.044 696.133 580.241 688.87C582.469 687.11 590.743 682.337 593.78 685.591C602.273 694.694 583.282 718.671 572.856 718.116C566.773 717.792 592.722 688.442 594.6 686.641C600.729 680.763 611.748 669.927 621.132 669.723C632.91 669.466 620.463 686.714 617.439 690.182C611.229 697.302 600.848 705.239 592.002 709.198C583.371 713.06 590.414 699.063 592.002 696.87C597.924 688.692 604.591 680.659 613.405 675.165C618.726 671.849 622.956 673.389 621.952 679.887C620.567 688.853 610.893 698.614 604.174 704.542C602.939 705.631 591.644 715.144 591.386 713.788C589.799 705.414 599.536 694.965 603.558 688.214C604.697 686.303 615.798 673.946 615.798 677.133C615.798 692.565 601.569 709.413 592.822 721.394C589.562 725.861 582.203 739.265 575.591 740.279C573.006 740.676 574.209 730.338 574.36 729.132C575.448 720.436 580.284 712.407 584.89 705.001C589.753 697.184 595.765 689.706 601.985 682.837C604.522 680.036 608.675 677.501 610.738 674.444C612.691 671.55 609.174 677.991 608.96 678.247C603.037 685.347 593.879 689.507 585.574 693.46C576.77 697.651 551.767 707.478 547.281 693.46C541.677 675.943 550.73 659.8 564.65 648.608C573.495 641.497 585.243 634.713 596.925 633.395C613.28 631.55 600.587 668.575 598.293 673.329C590.448 689.588 577.955 706.687 560.684 714.968C546.647 721.699 552.129 695.153 554.188 688.936C561.076 668.14 578.135 647.946 593.575 632.215C594.81 630.956 609.356 618.783 609.712 621.002C610.671 626.98 605.669 633.994 602.669 638.707C594.968 650.806 584.591 660.911 574.428 671.1C569.177 676.364 563.452 681.101 558.086 686.247C557.421 686.885 546.969 695.871 547.76 691.952C548.799 686.803 554.952 680.733 558.086 677.067C566.404 667.335 575.348 658.084 584.275 648.87C591.981 640.917 599.65 632.59 608.413 625.658C610.774 623.79 618.747 616.782 615.866 624.674C608.715 644.269 592.536 661.66 579.694 677.985C566.193 695.146 552.789 712.712 537.982 728.87C512.054 757.163 585.898 669.124 611.559 640.608C620.638 630.519 629.517 620.255 638.774 610.314C640.844 608.09 649.301 600.253 642.329 607.559C616.611 634.511 589.243 659.909 562.325 685.723C556.471 691.336 551.373 698.179 544.546 702.772C541.296 704.958 541.649 702.708 542.905 700.083C546.047 693.52 550.732 687.595 554.94 681.657C570.908 659.121 586.369 635.971 603.353 614.117C606.701 609.809 617.711 598.078 612.926 600.871C609.654 602.781 605.934 607.789 603.626 610.248C596.035 618.337 588.601 626.559 580.924 634.576C568.321 647.737 555.412 660.653 542.632 673.657C538.064 678.304 533.291 682.754 528.682 687.362C527.313 688.731 523.223 693.702 527.383 688.345C555.067 652.696 587.595 620.136 617.508 586.183C624.159 578.633 631.224 571.404 637.748 563.757C639.691 561.479 644.979 554.269 643.424 556.806C641.123 560.557 637.651 564.073 634.739 567.298C606.629 598.425 576.681 628.236 547.008 657.985C540.667 664.342 534.589 670.96 528.409 677.46C527.865 678.032 527.352 678.633 526.768 679.165C525.802 680.045 528.371 677.125 529.229 676.149C536.223 668.193 543.308 660.312 550.29 652.346C571.723 627.893 593.283 603.436 613.952 578.379C614.867 577.27 628.535 561.901 622.499 568.412C608.359 583.668 593.004 597.964 578.258 612.674C557.844 633.038 537.421 653.541 517.605 674.444C515.56 676.601 513.279 678.991 511.724 681.526C509.718 684.796 516.936 675.817 519.588 673.001C542.932 648.216 565.885 623.219 588.856 598.117C604.388 581.145 619.573 563.25 636.039 547.101C669.054 514.722 569.438 611.32 536.204 643.494C528.765 650.695 521.296 657.878 513.775 665.001C513.148 665.596 507.786 670.837 513.023 665.067C518.699 658.813 524.62 652.761 530.597 646.772C552.26 625.067 573.164 602.817 594.464 580.806C598.571 576.561 602.696 572.349 606.772 568.084C613.944 560.582 591.216 581.934 583.386 588.806C565.132 604.825 546.328 620.431 528.682 637.067C520.361 644.912 493.995 666.753 503.792 660.674C515.608 653.342 525.148 638.961 534.016 628.805C545.045 616.174 556.473 603.888 567.385 591.166C575.656 581.524 587.696 572.037 593.917 561.003C598.921 552.124 577.989 574.213 570.394 581.199C554.737 595.6 541.243 611.589 526.22 626.444C526.007 626.656 519.067 634.238 520.203 634.51C522.294 635.011 533.196 619.409 534.289 618.051C548.614 600.261 563.154 582.73 577.779 565.199C579.09 563.628 584.89 558.339 584.89 556.15C584.89 554.538 582.68 558.58 581.608 559.822C578 564.003 574.142 567.944 570.257 571.888C561.579 580.699 552.872 589.507 544.41 598.51C538.074 605.251 532.566 614.062 525.468 620.018C512.554 630.855 548.782 595.742 558.701 582.314C559.65 581.029 565.955 574.73 565.607 573.396C565 571.068 561.77 576.486 560 578.183C555.484 582.513 551.161 587.016 546.734 591.428C533.228 604.892 518.396 617.043 504.886 630.51C499.094 636.283 484.055 655.249 487.791 648.084C492.958 638.174 504.306 628.921 511.587 620.412C519.596 611.051 527.469 601.564 535.657 592.346C539.973 587.488 544.043 582.533 548.649 577.92C550.018 576.549 554.202 572.813 552.342 573.461C546.96 575.338 541.381 584.927 537.845 588.806C528.946 598.569 520.28 608.501 511.45 618.313C506.348 623.984 500.613 629.008 495.86 634.969C494.026 637.269 487.64 643.239 490.253 641.789C500.113 636.314 507.702 624.138 514.869 616.084C522.864 607.1 530.431 597.801 538.392 588.806C541.959 584.775 557.18 567.568 544.273 581.199C528.883 597.451 483.441 646.62 496.817 628.805C512.928 607.347 529.78 586.246 546.461 565.199C555.512 553.779 568.381 546.122 579.625 536.937C590.836 527.779 603.287 518.036 615.935 511.298C624.52 506.725 630.519 498.379 638.774 493.856C644.161 490.904 648.12 485.316 653.133 481.79C664.462 473.824 674.752 464.624 685.135 455.561C691.888 449.667 699.029 444.244 705.786 438.381C706.051 438.151 709.79 436.148 709.615 437.069C708.327 443.864 696.5 453.284 692.11 458.315C678.213 474.242 660.402 486.759 645.748 502.118C635.173 513.203 625.059 524.391 615.251 536.085C607.57 545.242 600.916 556.127 592.275 564.412C589.574 567.003 587.341 569.651 585.437 572.937C584.879 573.901 582.749 576.507 583.523 575.691C588.981 569.934 594.345 564.173 600.071 558.642C618.813 540.537 637.642 522.068 659.288 507.101C685.757 488.799 712.876 471.007 740.523 454.381C751.664 447.681 765.276 441.123 774.986 432.742C782.23 426.49 780.354 431.623 775.67 437.397C734.104 488.646 686.359 535.643 648.484 589.658C634.948 608.962 624.722 630.273 611.627 649.592C609.614 652.562 607.109 658.081 604.242 660.28C603.911 660.534 602.635 662.603 603.216 662.444C606.399 661.572 610.23 655.67 612.447 653.592C639.259 628.465 663.843 601.063 693.478 578.838C702.643 571.965 712.138 564.584 720.556 556.937C721.638 555.954 733.19 548.981 731.77 551.822C727.443 560.482 717.965 567.915 711.667 575.298C700.11 588.843 689.082 602.82 677.34 616.215C664.102 631.317 649.631 646.508 638.363 663.034C634.291 669.007 629.354 674.035 625.782 680.346C624.132 683.259 621.878 687.36 619.627 689.788C617.818 691.74 617.462 694.689 615.661 696.608C610.095 702.539 622.481 688.441 623.388 687.296C648.064 656.161 679.025 628.68 708.658 601.986C715.981 595.389 723.254 589.258 729.24 581.724C734.195 575.488 740.679 569.928 747.019 565.199C751.241 562.051 754.919 556.509 758.712 552.872C769.306 542.713 777.005 529.347 786.064 517.987C790.008 513.041 798.825 496.8 797.552 502.905C796.752 506.739 791.884 511.035 789.483 513.921C784.265 520.193 778.776 526.168 773.209 532.15C758.792 547.641 745.689 563.905 729.24 577.527C724.249 581.661 716.435 588.771 710.094 590.642C707.496 591.408 701.977 595.034 703.598 589.789C706.442 580.582 717.844 571.597 723.907 564.347C735.971 549.919 748.816 536.401 762.131 523.036C777.284 507.826 792.327 492.411 808.424 478.118C844.418 446.158 743.413 548.658 708.726 581.92C701.691 588.667 680.681 608.911 686.982 601.527C712.541 571.569 741.88 543.913 771.02 517.2C778.851 510.021 786.473 502.644 794.133 495.298C795.294 494.185 804.025 486.044 797.688 490.446C764.254 513.674 733.628 540.652 702.093 566.117C691.212 574.904 680.06 583.733 667.904 590.642C664.558 592.543 668.546 587.525 668.998 586.97C679.905 573.544 692.271 561.063 704.829 549.068C730.648 524.407 758.089 499.913 787.432 479.036C792.17 475.665 806.013 465.586 793.039 476.282C761.969 501.894 730.488 527.367 700.179 553.79C689.672 562.949 679.019 571.829 667.767 580.15C662.374 584.138 655.359 590.004 663.527 579.691C681.067 557.545 701.605 537.431 721.513 517.265C740.83 497.7 760.312 478.082 780.594 459.43C789.435 451.299 798.736 443.672 807.398 435.365C811.449 431.48 823.447 419.813 820.117 424.283C817.85 427.326 813.599 430.335 810.817 432.742C799.516 442.519 788.182 452.237 777.038 462.184C750.8 485.602 725.118 509.585 698.88 533.003C687.996 542.716 677.274 552.593 666.399 562.314C663.06 565.299 654.745 575.331 656.347 571.232C657.354 568.657 660.863 565.496 662.57 563.625C670.558 554.871 678.812 546.325 687.05 537.79C708.553 515.51 730.266 493.448 751.395 470.84C766.118 455.086 811.612 408.989 796.663 424.545C760.457 462.22 722.489 498.994 684.451 534.97C682.999 536.343 658.786 560.477 658.057 559.691C655.814 557.272 676.501 533.451 679.665 530.183C685.292 524.372 690.099 516.531 694.982 510.118C697.861 506.337 703.643 496.997 708.248 495.298C712.375 493.776 702.504 501.761 699.358 504.741C692.817 510.938 685.883 516.739 679.118 522.708C667.918 532.589 656.743 542.411 644.107 550.642C638.867 554.056 638.08 550.531 640.552 545.79C644.981 537.294 651.43 529.217 657.236 521.528C670.266 504.273 682.477 486.527 695.324 469.135C706.834 453.552 719.32 438.334 732.181 423.758C736.421 418.953 742.472 415.356 746.404 410.643C750.424 405.824 755.134 401.157 759.669 396.808C765.177 391.526 769.334 384.81 774.713 379.365C777.106 376.943 779.708 374.709 782.098 372.283C783.837 370.517 784.194 367.744 786.064 366.382C793.751 360.779 796.462 350.596 803.022 343.956C805.384 341.565 814.507 336.975 814.1 337.464C810.598 341.662 804.124 345.259 799.945 349.267C791.564 357.304 784.928 367.077 776.491 375.168C771.793 379.673 765.78 383.077 760.558 386.972C756.442 390.042 752.089 394.295 747.634 396.808C736.625 403.018 723.456 415.67 717.137 426.578C714.811 430.593 712.31 431.6 709.205 434.578C706.03 437.623 710.103 443.468 705.239 446.578C701.503 448.966 714.219 446.643 718.71 446.643C726.525 446.643 736.695 444.278 743.874 441.266C758.206 435.253 767.095 421.463 780.867 414.512C787.408 411.211 795.695 410.312 798.099 417.66C803.916 435.44 803.666 457.608 799.603 475.626C797.686 484.13 795.729 491.761 792.218 499.757C789.917 504.998 787.248 510.38 794.406 510.38C797.997 510.38 807.223 511.954 809.176 508.675C812.504 503.091 818.526 498.469 821.485 492.085C823.311 488.146 826.255 483.379 829.485 480.282C833.826 476.12 840.117 471.087 843.571 466.118C846.268 462.239 850.72 459.919 854.102 456.676C858.047 452.893 866.231 450.612 868.872 446.053C872.669 439.498 881.384 433.399 886.993 428.02C892.786 422.465 896.446 415.981 901.763 410.316C902.85 409.157 904.191 407.744 905.455 406.775C907.952 404.859 907.169 406.582 904.908 404.414C902.321 401.933 898.865 399.306 895.95 397.07C883.567 387.57 872.802 374.885 862.102 364.021C859.05 360.921 856.116 357.81 852.256 355.497C848.419 353.197 847.467 348.456 844.597 345.398C839.389 339.849 833.386 333.493 827.023 328.612C824.089 326.36 822.689 322.689 819.638 320.349C816.916 318.261 819.112 318.865 817.177 320.349C815.233 321.84 813.052 323.032 811.023 324.546C802.534 330.877 795.813 337.885 788.252 345.136C777.106 355.824 768.493 367.747 758.985 380.021C754.547 385.751 750.199 391.442 745.173 396.545C738.502 403.318 748.458 395.1 750.712 392.939C757.097 386.815 766.759 382.598 774.097 377.726C780.928 373.191 789.556 369.772 796.936 365.791C801.191 363.496 810.565 356.729 815.878 358.185C817.76 358.701 808.183 371.787 807.398 373.07C799.194 386.492 788.388 397.945 780.594 411.234C778.555 414.709 785.237 404.537 788.252 401.791C796.413 394.356 804.846 384.497 814.783 379.3C819.537 376.813 823.753 372.283 829.485 372.283C833.181 372.283 831.027 382.377 829.485 384.152C820.958 393.964 820.768 412.403 807.945 419.234C801.35 422.747 802.751 415.919 803.022 411.234C803.331 405.899 812.075 396.481 816.288 393.529C825.991 386.729 832.243 375.484 846.648 379.431C853.524 381.315 851.71 399.559 849.794 403.693C842.667 419.07 834.441 435.33 822.716 447.823C818.259 452.572 812.872 458.769 809.45 464.348C808.423 466.022 804.232 471.737 804.253 471.43C804.53 467.438 819.699 461.478 822.716 459.627C829.665 455.361 839.048 450.028 844.187 443.692C849.733 436.854 882.19 405.5 865.795 398.512C850.768 392.108 836.575 382.238 820.527 376.742C813.822 374.446 806.493 371.507 799.33 371.103C795.871 370.908 785.969 368.706 782.713 366.972C778.14 364.535 768.825 366.127 765.482 369.332C751.273 382.958 739.379 398.25 727.873 414.25C710.942 437.791 694.541 461.716 677.75 485.331C671.52 494.094 665.395 503.176 660.792 512.806C659.476 515.559 657.047 521.946 654.091 523.364" stroke="url(#paint1_linear_11_2)" stroke-width="29" stroke-linecap="round"/>
<path d="M447 809C447.432 805.37 453.958 801.194 455.987 798.115C459.183 793.264 463.717 789.433 466.347 784.213C468.264 780.409 470.802 777.344 472.588 773.591C473.699 771.256 474.364 768.803 475.334 766.509C476.323 764.172 475.523 761.635 476.458 759.427C478.294 755.085 477.331 748.867 477.331 744.083C477.331 738.851 478.455 733.894 478.455 728.476C478.455 710.826 483.402 692.827 491.311 677.395C492.755 674.578 493.915 672.865 495.805 670.313C497.925 667.449 499.407 669.031 497.552 672.149C490.573 683.882 483.414 695.898 476.894 708.017C472.517 716.155 466.836 726.134 464.912 735.23C463.986 739.609 460.716 744.604 460.481 748.804C459.88 759.538 461.49 765.531 470.591 770.312C474.788 772.517 479.279 773.742 483.448 775.689C487.613 777.634 493.203 776.691 496.991 778.902C500.24 780.799 506.777 779.492 510.471 779.492C514.585 779.492 511.06 779.083 509.348 780.082C506.777 781.583 503.774 783.357 500.922 784.213C496.707 785.479 489.102 788.229 486.318 791.885C485.23 793.315 483.695 794.182 482.511 795.426C481.947 796.019 490.016 794.232 491.062 793.918C497.473 791.993 503.856 791.197 509.909 788.017C514.727 785.486 519.334 781.826 524.264 779.754C532.44 776.318 539.339 771.23 548.666 771.23C557.876 771.23 566.949 764.928 575.627 762.902C577.501 762.465 579.335 760.607 581.119 760.607C584.781 760.607 573.797 760.607 570.135 760.607C560.17 760.607 550.206 760.607 540.241 760.607C532.783 760.607 526.063 758.623 518.897 758.246C513.241 757.949 506.56 757.105 503.419 751.165C500.024 744.744 498.676 738.669 498.676 731.099C498.676 722.411 499.415 720.752 505.915 715.165C510.703 711.049 523.192 710.163 528.445 713.985C535.314 718.981 542.397 726.19 545.234 734.706C547.143 740.437 549.488 755.267 545.858 760.607C541.46 767.076 529.635 768.869 522.516 768.869C514.234 768.869 509.271 769.222 502.295 764.148C494.978 758.826 494.182 746.705 494.182 738.443C494.182 734.794 493.777 732.551 496.429 729.919C498.649 727.716 501.818 728.409 503.169 731.099C508.445 741.602 507.663 752.607 507.663 764.148C507.663 777.727 504.665 784.98 495.93 794.771C487.755 803.932 469.842 800.738 458.796 800.738C452.626 800.738 451.494 800.332 451.494 793.656C451.494 778.455 461.185 766.079 467.72 753.001C473.41 741.613 484.329 726.79 496.054 721.657C503.657 718.329 512.067 716.935 520.27 716.935C524.199 716.935 529.766 715.81 533.251 718.116C538.969 721.898 561.1 746.548 549.602 750.574C540.536 753.75 525.097 745.756 521.143 736.411C520.21 734.204 514.966 726.849 518.335 724.017C532.179 712.381 549.203 749.548 541.115 752.607C528.978 757.198 518.366 746.66 511.282 737.525C502.085 725.666 499.799 710.697 499.799 695.69C499.799 687.25 499.424 675.453 509.036 672.346C518.626 669.245 526.71 676.66 529.007 686.313C530.829 693.971 533.877 700.257 525.013 703.362C514.058 707.198 503.966 700.298 500.486 689.329C497.923 681.252 497.912 663.864 502.545 656.215C507.648 647.79 514.451 652.888 517.773 660.28C519.417 663.938 525.465 678.418 522.017 682.444C515.242 690.353 509.792 673.928 509.036 669.46C507.414 659.875 508.79 646.59 519.146 642.838C530.08 638.876 542.165 641.437 546.419 653.854C548.518 659.979 556.015 684.429 545.171 686.182C531.217 688.437 529.007 666.396 529.007 656.28C529.007 650.393 529.563 645.661 534.561 642.051C537.722 639.768 542.238 639.026 544.734 642.772C550.6 651.576 551.744 665.045 552.598 675.362C553.219 682.869 554.767 690.945 553.659 698.509C552.59 705.807 542.007 705.462 539.679 699.755C534.227 686.389 538.964 665.001 555.032 665.001C564.193 665.001 567.883 666.405 569.386 676.936C570.899 687.533 572.843 702.439 569.324 712.739C566.969 719.63 561.765 727.142 554.845 729.263C546.646 731.776 546.981 723.285 546.981 716.935C546.981 702.568 548.595 685.691 565.829 685.067C579.842 684.559 575.874 717.597 571.945 725.853C570.85 728.155 555.846 753.604 553.472 742.378C550.264 727.213 558.789 714.575 573.88 714.575C577.964 714.575 582.499 713.001 582.992 718.181C583.72 725.837 584.756 732.424 582.368 739.952C580.146 746.956 569.549 763.506 568.388 747.033C567.179 729.882 573.94 712.792 592.416 714.64C597.983 715.197 596.851 726.695 596.285 730.706C595.069 739.333 590.019 744.106 582.929 747.624C580.726 748.717 574.164 750.523 573.942 746.443C573.555 739.316 573.048 730.634 577.063 724.542C580.236 719.725 584.554 715.005 590.169 713.657C596.078 712.238 595.287 715.737 595.287 720.739C595.287 728.116 590.405 731.845 585.176 736.083C584.605 736.546 578.765 742.387 577.562 740.279C573.25 732.728 582.861 720.024 587.423 715.23C591.943 710.481 596.39 706.313 603.15 706.313C610.689 706.313 606.787 738.589 596.909 740.476C593.023 741.219 590.129 738.74 589.732 734.575C588.937 726.22 592.124 720.474 598.657 715.755C603.914 711.957 609.978 707.244 616.568 706.378C620.627 705.845 622.943 708.18 620.126 712.542C613.462 722.86 604.165 729.658 593.352 733.919C584.646 737.349 589.079 721.514 590.793 716.935C594.733 706.408 600.373 696.133 608.767 688.87C610.801 687.11 618.353 682.337 621.124 685.591C628.876 694.694 611.543 718.671 602.027 718.116C596.476 717.792 620.159 688.442 621.873 686.641C627.467 680.763 637.524 669.927 646.088 669.723C656.838 669.466 645.478 686.714 642.718 690.182C637.051 697.302 627.575 705.239 619.502 709.198C611.624 713.06 618.053 699.063 619.502 696.87C624.907 688.692 630.991 680.659 639.036 675.165C643.892 671.849 647.754 673.389 646.837 679.887C645.573 688.853 636.744 698.614 630.611 704.542C629.484 705.631 619.175 715.144 618.94 713.788C617.491 705.414 626.378 694.965 630.049 688.214C631.089 686.303 641.22 673.946 641.22 677.133C641.22 692.565 628.233 709.413 620.251 721.394C617.275 725.861 610.558 739.265 604.523 740.279C602.164 740.676 603.262 730.338 603.4 729.132C604.393 720.436 608.807 712.407 613.011 705.001C617.449 697.184 622.937 689.706 628.614 682.837C630.929 680.036 634.719 677.501 636.602 674.444C638.384 671.55 635.175 677.991 634.979 678.247C629.574 685.347 621.215 689.507 613.635 693.46C605.599 697.651 582.779 707.478 578.685 693.46C573.57 675.943 581.833 659.8 594.538 648.608C602.61 641.497 613.333 634.713 623.995 633.395C638.923 631.55 627.337 668.575 625.243 673.329C618.084 689.588 606.682 706.687 590.918 714.968C578.106 721.699 583.109 695.153 584.989 688.936C591.276 668.14 606.846 647.946 620.937 632.215C622.065 630.956 635.341 618.783 635.666 621.002C636.541 626.98 631.975 633.994 629.238 638.707C622.209 650.806 612.738 660.911 603.462 671.1C598.669 676.364 593.444 681.101 588.546 686.247C587.939 686.885 578.4 695.871 579.122 691.952C580.071 686.803 585.687 680.733 588.546 677.067C596.138 667.335 604.301 658.084 612.449 648.87C619.483 640.917 626.482 632.59 634.48 625.658C636.635 623.79 643.912 616.782 641.283 624.674C634.755 644.269 619.989 661.66 608.268 677.985C595.946 695.146 583.712 712.712 570.198 728.87C546.533 757.163 613.93 669.124 637.351 640.608C645.637 630.519 653.742 620.255 662.19 610.314C664.08 608.09 671.799 600.253 665.436 607.559C641.962 634.511 616.984 659.909 592.416 685.723C587.073 691.336 582.42 698.179 576.189 702.772C573.222 704.958 573.544 702.708 574.691 700.083C577.558 693.52 581.835 687.595 585.675 681.657C600.25 659.121 614.36 635.971 629.862 614.117C632.917 609.809 642.967 598.078 638.599 600.871C635.613 602.781 632.218 607.789 630.111 610.248C623.182 618.337 616.398 626.559 609.391 634.576C597.888 647.737 586.106 660.653 574.442 673.657C570.273 678.304 565.916 682.754 561.71 687.362C560.46 688.731 556.728 693.702 560.524 688.345C585.791 652.696 615.479 620.136 642.781 586.183C648.852 578.633 655.299 571.404 661.254 563.757C663.028 561.479 667.854 554.269 666.434 556.806C664.334 560.557 661.166 564.073 658.508 567.298C632.852 598.425 605.519 628.236 578.436 657.985C572.649 664.342 567.101 670.96 561.46 677.46C560.964 678.032 560.496 678.633 559.962 679.165C559.081 680.045 561.426 677.125 562.209 676.149C568.592 668.193 575.059 660.312 581.432 652.346C600.993 627.893 620.671 603.436 639.535 578.379C640.37 577.27 652.845 561.901 647.337 568.412C634.431 583.668 620.416 597.964 606.957 612.674C588.326 633.038 569.686 653.541 551.599 674.444C549.733 676.601 547.651 678.991 546.232 681.526C544.401 684.796 550.989 675.817 553.409 673.001C574.716 648.216 595.665 623.219 616.631 598.117C630.806 581.145 644.666 563.25 659.694 547.101C689.827 514.722 598.907 611.32 568.575 643.494C561.785 650.695 554.969 657.878 548.104 665.001C547.532 665.596 542.638 670.837 547.418 665.067C552.599 658.813 558.002 652.761 563.457 646.772C583.229 625.067 602.309 602.817 621.749 580.806C625.497 576.561 629.262 572.349 632.982 568.084C639.528 560.582 618.784 581.934 611.638 588.806C594.978 604.825 577.815 620.431 561.71 637.067C554.115 644.912 530.051 666.753 538.993 660.674C549.777 653.342 558.485 638.961 566.578 628.805C576.644 616.174 587.074 603.888 597.034 591.166C604.583 581.524 615.572 572.037 621.249 561.003C625.817 552.124 606.712 574.213 599.78 581.199C585.49 595.6 573.174 611.589 559.463 626.444C559.268 626.656 552.934 634.238 553.971 634.51C555.88 635.011 565.83 619.409 566.828 618.051C579.902 600.261 593.172 582.73 606.52 565.199C607.717 563.628 613.011 558.339 613.011 556.15C613.011 554.538 610.994 558.58 610.015 559.822C606.722 564.003 603.201 567.944 599.655 571.888C591.735 580.699 583.788 589.507 576.064 598.51C570.281 605.251 565.255 614.062 558.777 620.018C546.99 630.855 580.055 595.742 589.108 582.314C589.974 581.029 595.729 574.73 595.411 573.396C594.857 571.068 591.909 576.486 590.294 578.183C586.172 582.513 582.226 587.016 578.186 591.428C565.859 604.892 552.322 617.043 539.991 630.51C534.705 636.283 520.979 655.249 524.389 648.084C529.105 638.174 539.462 628.921 546.107 620.412C553.417 611.051 560.603 601.564 568.076 592.346C572.015 587.488 575.73 582.533 579.934 577.92C581.183 576.549 585.001 572.813 583.304 573.461C578.392 575.338 573.3 584.927 570.073 588.806C561.95 598.569 554.041 608.501 545.983 618.313C541.326 623.984 536.091 629.008 531.753 634.969C530.079 637.269 524.251 643.239 526.635 641.789C535.635 636.314 542.562 624.138 549.103 616.084C556.399 607.1 563.306 597.801 570.572 588.806C573.828 584.775 587.72 567.568 575.939 581.199C561.894 597.451 520.418 646.62 532.627 628.805C547.331 607.347 562.712 586.246 577.937 565.199C586.198 553.779 597.943 546.122 608.205 536.937C618.438 527.779 629.802 518.036 641.345 511.298C649.181 506.725 654.656 498.379 662.19 493.856C667.107 490.904 670.721 485.316 675.296 481.79C685.636 473.824 695.028 464.624 704.504 455.561C710.667 449.667 717.185 444.244 723.352 438.381C723.594 438.151 727.007 436.148 726.847 437.069C725.671 443.864 714.877 453.284 710.87 458.315C698.187 474.242 681.93 486.759 668.556 502.118C658.903 513.203 649.673 524.391 640.721 536.085C633.711 545.242 627.638 556.127 619.751 564.412C617.286 567.003 615.248 569.651 613.51 572.937C613 573.901 611.056 576.507 611.763 575.691C616.744 569.934 621.64 564.173 626.866 558.642C643.973 540.537 661.158 522.068 680.913 507.101C705.072 488.799 729.823 471.007 755.057 454.381C765.225 447.681 777.648 441.123 786.511 432.742C793.123 426.49 791.41 431.623 787.135 437.397C749.198 488.646 705.621 535.643 671.053 589.658C658.698 608.962 649.365 630.273 637.413 649.592C635.576 652.562 633.29 658.081 630.673 660.28C630.371 660.534 629.206 662.603 629.737 662.444C632.642 661.572 636.138 655.67 638.162 653.592C662.633 628.465 685.071 601.063 712.118 578.838C720.483 571.965 729.15 564.584 736.833 556.937C737.82 555.954 748.364 548.981 747.068 551.822C743.119 560.482 734.468 567.915 728.72 575.298C718.171 588.843 708.107 602.82 697.39 616.215C685.308 631.317 672.1 646.508 661.816 663.034C658.099 669.007 653.593 674.035 650.332 680.346C648.827 683.259 646.77 687.36 644.715 689.788C643.064 691.74 642.739 694.689 641.096 696.608C636.015 702.539 647.32 688.441 648.148 687.296C670.669 656.161 698.927 628.68 725.974 601.986C732.657 595.389 739.295 589.258 744.759 581.724C749.281 575.488 755.199 569.928 760.986 565.199C764.839 562.051 768.196 556.509 771.658 552.872C781.326 542.713 788.353 529.347 796.622 517.987C800.221 513.041 808.269 496.8 807.107 502.905C806.377 506.739 801.934 511.035 799.742 513.921C794.98 520.193 789.971 526.168 784.889 532.15C771.731 547.641 759.771 563.905 744.759 577.527C740.203 581.661 733.072 588.771 727.284 590.642C724.913 591.408 719.876 595.034 721.355 589.789C723.951 580.582 734.358 571.597 739.891 564.347C750.902 549.919 762.625 536.401 774.778 523.036C788.608 507.826 802.338 492.411 817.03 478.118C849.882 446.158 757.694 548.658 726.036 581.92C719.615 588.667 700.439 608.911 706.189 601.527C729.518 571.569 756.296 543.913 782.892 517.2C790.039 510.021 796.995 502.644 803.986 495.298C805.046 494.185 813.015 486.044 807.232 490.446C776.716 513.674 748.763 540.652 719.982 566.117C710.051 574.904 699.872 583.733 688.777 590.642C685.723 592.543 689.363 587.525 689.776 586.97C699.731 573.544 711.017 561.063 722.479 549.068C746.044 524.407 771.089 499.913 797.87 479.036C802.194 475.665 814.83 465.586 802.988 476.282C774.631 501.894 745.897 527.367 718.235 553.79C708.645 562.949 698.922 571.829 688.652 580.15C683.73 584.138 677.328 590.004 684.783 579.691C700.791 557.545 719.536 537.431 737.707 517.265C755.337 497.7 773.118 478.082 791.629 459.43C799.699 451.299 808.187 443.672 816.094 435.365C819.791 431.48 830.741 419.813 827.702 424.283C825.633 427.326 821.753 430.335 819.214 432.742C808.899 442.519 798.555 452.237 788.384 462.184C764.436 485.602 740.997 509.585 717.049 533.003C707.116 542.716 697.329 552.593 687.404 562.314C684.357 565.299 676.767 575.331 678.23 571.232C679.149 568.657 682.351 565.496 683.909 563.625C691.199 554.871 698.733 546.325 706.252 537.79C725.877 515.51 745.695 493.448 764.98 470.84C778.418 455.086 819.94 408.989 806.295 424.545C773.25 462.22 738.597 498.994 703.88 534.97C702.555 536.343 680.455 560.477 679.79 559.691C677.743 557.272 696.624 533.451 699.512 530.183C704.648 524.372 709.035 516.531 713.491 510.118C716.119 506.337 721.396 496.997 725.599 495.298C729.366 493.776 720.357 501.761 717.486 504.741C711.516 510.938 705.187 516.739 699.012 522.708C688.79 532.589 678.591 542.411 667.058 550.642C662.275 554.056 661.557 550.531 663.813 545.79C667.856 537.294 673.742 529.217 679.041 521.528C690.933 504.273 702.078 486.527 713.803 469.135C724.308 453.552 735.704 438.334 747.443 423.758C751.313 418.953 756.836 415.356 760.424 410.643C764.093 405.824 768.392 401.157 772.532 396.808C777.559 391.526 781.353 384.81 786.262 379.365C788.446 376.943 790.821 374.709 793.002 372.283C794.589 370.517 794.916 367.744 796.622 366.382C803.638 360.779 806.112 350.596 812.1 343.956C814.255 341.565 822.582 336.975 822.21 337.464C819.014 341.662 813.105 345.259 809.291 349.267C801.641 357.304 795.585 367.077 787.884 375.168C783.597 379.673 778.108 383.077 773.343 386.972C769.586 390.042 765.613 394.295 761.547 396.808C751.499 403.018 739.48 415.67 733.712 426.578C731.589 430.593 729.307 431.6 726.473 434.578C723.575 437.623 727.292 443.468 722.853 446.578C719.443 448.966 731.049 446.643 735.148 446.643C742.281 446.643 751.563 444.278 758.115 441.266C771.196 435.253 779.309 421.463 791.879 414.512C797.849 411.211 805.412 410.312 807.606 417.66C812.915 435.44 812.687 457.608 808.979 475.626C807.229 484.13 805.443 491.761 802.239 499.757C800.139 504.998 797.702 510.38 804.236 510.38C807.513 510.38 815.933 511.954 817.716 508.675C820.754 503.091 826.25 498.469 828.95 492.085C830.617 488.146 833.304 483.379 836.252 480.282C840.214 476.12 845.956 471.087 849.109 466.118C851.57 462.239 855.633 459.919 858.72 456.676C862.32 452.893 869.79 450.612 872.201 446.053C875.666 439.498 883.62 433.399 888.739 428.02C894.027 422.465 897.367 415.981 902.22 410.316C903.212 409.157 904.436 407.744 905.59 406.775C907.869 404.859 907.154 406.582 905.091 404.414C902.73 401.933 899.575 399.306 896.915 397.07C885.613 387.57 875.788 374.885 866.022 364.021C863.236 360.921 860.558 357.81 857.035 355.497C853.533 353.197 852.664 348.456 850.045 345.398C845.291 339.849 839.813 333.493 834.006 328.612C831.327 326.36 830.049 322.689 827.265 320.349C824.781 318.261 826.785 318.865 825.018 320.349C823.245 321.84 821.254 323.032 819.402 324.546C811.654 330.877 805.52 337.885 798.619 345.136C788.446 355.824 780.585 367.747 771.907 380.021C767.856 385.751 763.888 391.442 759.301 396.545C753.212 403.318 762.299 395.1 764.356 392.939C770.184 386.815 779.002 382.598 785.7 377.726C791.934 373.191 799.809 369.772 806.545 365.791C810.429 363.496 818.984 356.729 823.833 358.185C825.551 358.701 816.81 371.787 816.094 373.07C808.605 386.492 798.743 397.945 791.629 411.234C789.768 414.709 795.867 404.537 798.619 401.791C806.068 394.356 813.765 384.497 822.834 379.3C827.172 376.813 831.02 372.283 836.252 372.283C839.625 372.283 837.66 382.377 836.252 384.152C828.47 393.964 828.296 412.403 816.593 419.234C810.573 422.747 811.852 415.919 812.1 411.234C812.382 405.899 820.362 396.481 824.207 393.529C833.063 386.729 838.769 375.484 851.917 379.431C858.193 381.315 856.537 399.559 854.788 403.693C848.284 419.07 840.776 435.33 830.074 447.823C826.006 452.572 821.09 458.769 817.966 464.348C817.029 466.022 813.203 471.737 813.223 471.43C813.476 467.438 827.32 461.478 830.074 459.627C836.416 455.361 844.98 450.028 849.67 443.692C854.733 436.854 884.356 405.5 869.392 398.512C855.677 392.108 842.723 382.238 828.077 376.742C821.957 374.446 815.268 371.507 808.729 371.103C805.573 370.908 796.535 368.706 793.564 366.972C789.39 364.535 780.888 366.127 777.836 369.332C764.868 382.958 754.013 398.25 743.511 414.25C728.058 437.791 713.089 461.716 697.764 485.331C692.078 494.094 686.487 503.176 682.286 512.806C681.085 515.559 678.868 521.946 676.17 523.364" stroke="url(#paint2_linear_11_2)" stroke-width="29" stroke-linecap="round"/>
<path d="M852 270.387C859.997 270.387 866.65 281.337 873.085 284.328C880.676 287.857 889.399 294.591 894.691 300.284C905.997 312.449 919.413 323.314 932.566 334.32C938.917 339.635 946.287 344.387 952.74 349.786C956.892 353.26 959.477 357.078 963.022 360.787C965.674 363.56 954.345 360.743 953.391 360.514C945.254 358.569 941.761 352.797 936.08 348.044C930.237 343.154 925.322 334.544 918.249 331.162C915.251 329.728 911.095 325.368 909.398 322.884C907.159 319.604 902.25 317.209 900.027 313.953C895.59 307.455 885.624 302.01 879.202 296.636C871.162 289.907 852.761 260.193 871.393 255.738C880.758 253.499 886.848 262.415 890.656 267.991C896.329 276.298 905.602 282.223 910.83 290.972C915.796 299.283 923.723 304.975 930.483 312.047C935.377 317.166 943.336 324.33 950.397 327.459C955.627 329.775 966.64 340.026 972.914 335.301C979.47 330.363 974.961 322.419 969.66 317.983C964.345 313.535 955.34 308.802 951.569 303.28C947.996 298.048 941.317 291.461 936.34 287.051C928.867 280.429 922.59 272.957 917.338 265.486C915.032 262.206 912.009 259.715 911.741 255.684C911.492 251.933 911.611 247.816 911.611 244.411C911.611 243.459 900.804 244.901 899.441 244.901C898.692 244.901 893.935 245.69 896.057 244.901C898.458 244.008 902.106 242.941 904.713 242.941C912.572 242.941 925.042 244.966 929.312 251.218C933.592 257.486 939.071 262.779 940.961 269.897C942.915 277.255 947.215 283.415 953 288.794C959.661 294.987 967.229 299.758 976.168 303.497C979.858 305.041 983.431 306.308 986.45 308.834C988.163 310.268 989.021 309.655 990.485 311.339C991.038 311.975 993.26 317.124 993.674 315.914C995.797 309.695 987.029 299.087 982.676 294.403C980.104 291.636 979.608 285.041 976.754 283.13C975.327 282.176 972.77 274.102 972.654 272.348C972.196 265.451 964.342 258.388 958.011 254.268C955.296 252.501 949.853 250.912 948.054 248.278C946.263 245.655 942.648 241.558 939.855 240" stroke="url(#paint3_linear_11_2)" stroke-width="29" stroke-linecap="round"/>
<path d="M818.744 285.152L931.286 397.694" stroke="#9233FF" stroke-width="50" stroke-linecap="round"/>
<path d="M851.707 246.12C859.784 238.042 869.374 231.634 879.929 227.263C890.483 222.891 901.795 220.641 913.219 220.641C924.643 220.641 935.955 222.891 946.509 227.263C957.063 231.634 966.653 238.042 974.731 246.12C982.809 254.198 989.217 263.788 993.589 274.342C997.96 284.897 1000.21 296.209 1000.21 307.632C1000.21 319.056 997.96 330.368 993.589 340.923C989.217 351.477 982.809 361.067 974.731 369.145L559.523 784.353L390.364 830.488L436.498 661.329L851.707 246.12Z" stroke="#9233FF" stroke-width="50" stroke-linecap="round" stroke-linejoin="round"/>
</g>
<defs>
<linearGradient id="paint0_linear_11_2" x1="86" y1="908.738" x2="659.26" y2="10.3207" gradientUnits="userSpaceOnUse">
<stop stop-color="#95EDFF"/>
<stop offset="1" stop-color="#F949FF"/>
</linearGradient>
<linearGradient id="paint1_linear_11_2" x1="403.053" y1="809.145" x2="885.727" y2="299.054" gradientUnits="userSpaceOnUse">
<stop offset="0.254808" stop-color="#98DAE7"/>
<stop offset="1" stop-color="#F949FF"/>
</linearGradient>
<linearGradient id="paint2_linear_11_2" x1="447.048" y1="809.145" x2="930.144" y2="343.179" gradientUnits="userSpaceOnUse">
<stop offset="0.254808" stop-color="#98DAE7"/>
<stop offset="1" stop-color="#F949FF"/>
</linearGradient>
<linearGradient id="paint3_linear_11_2" x1="852" y1="362" x2="982.863" y2="229.039" gradientUnits="userSpaceOnUse">
<stop offset="0.519231" stop-color="#F949FF"/>
</linearGradient>
<clipPath id="clip0_11_2">
<rect width="1024" height="1024" rx="100" fill="white"/>
</clipPath>
</defs>
</svg>
