<svg width="142" height="92" viewBox="0 0 142 92" fill="none" xmlns="http://www.w3.org/2000/svg">
<path d="M33.0403 91C21.5136 91 13.2369 88.5733 8.21027 83.72C3.18361 78.8667 0.670274 71.8467 0.670274 62.66V28.34C0.670274 19.1533 3.18361 12.1333 8.21027 7.27999C13.2369 2.42666 21.5136 -6.19888e-06 33.0403 -6.19888e-06H63.4603V14.3H33.0403C28.2736 14.3 24.7203 15.4267 22.3803 17.68C20.1269 19.9333 19.0003 23.4867 19.0003 28.34V38.35H57.7403V52.65H19.0003V62.66C19.0003 67.4267 20.1269 70.98 22.3803 73.32C24.7203 75.5733 28.2736 76.7 33.0403 76.7H63.7203V91H33.0403ZM141.232 76.83V91.13H90.4018C84.2484 91.13 79.5684 89.83 76.3618 87.23C73.1551 84.5433 71.5518 80.2533 71.5518 74.36V64.74L120.172 14.3H73.5018V-6.19888e-06H139.152V16.51L88.1918 70.46V71.76C88.1918 73.7533 88.7118 75.0967 89.7518 75.79C90.8784 76.4833 92.3951 76.83 94.3018 76.83H141.232Z" fill="#8F2EFF"/>
</svg>
